<mxfile host="app.diagrams.net" modified="2023-09-15T03:51:53.306Z" agent="Mozilla/5.0 (Windows NT 10.0; Win64; x64) AppleWebKit/537.36 (KHTML, like Gecko) Chrome/116.0.0.0 Safari/537.36" etag="UyLfG6kUl69pn4i6EUOe" version="21.6.9" type="github">
  <diagram name="Page-1" id="2YBvvXClWsGukQMizWep">
    <mxGraphModel dx="5157" dy="1378" grid="0" gridSize="10" guides="1" tooltips="1" connect="1" arrows="1" fold="1" page="1" pageScale="1" pageWidth="850" pageHeight="1100" math="0" shadow="0">
      <root>
        <mxCell id="0" />
        <mxCell id="1" parent="0" />
        <mxCell id="tJhSIbLWdgZJOuwZPTp4-64" value="" style="rounded=0;whiteSpace=wrap;html=1;" vertex="1" parent="1">
          <mxGeometry x="-770" y="462.37" width="387" height="240.25" as="geometry" />
        </mxCell>
        <mxCell id="tJhSIbLWdgZJOuwZPTp4-90" style="edgeStyle=orthogonalEdgeStyle;rounded=0;orthogonalLoop=1;jettySize=auto;html=1;exitX=1;exitY=0.5;exitDx=0;exitDy=0;entryX=0.5;entryY=1;entryDx=0;entryDy=0;" edge="1" parent="1" source="tJhSIbLWdgZJOuwZPTp4-5" target="tJhSIbLWdgZJOuwZPTp4-73">
          <mxGeometry relative="1" as="geometry" />
        </mxCell>
        <mxCell id="tJhSIbLWdgZJOuwZPTp4-5" value="&lt;div style=&quot;color: rgb(255, 255, 255); background-color: rgb(0, 0, 0); font-family: Consolas, &amp;quot;Courier New&amp;quot;, monospace; font-size: 14px; line-height: 19px;&quot;&gt;FormDestroy&lt;/div&gt;" style="rounded=1;whiteSpace=wrap;html=1;" vertex="1" parent="1">
          <mxGeometry x="-1501" y="1083" width="120" height="60" as="geometry" />
        </mxCell>
        <mxCell id="tJhSIbLWdgZJOuwZPTp4-85" style="edgeStyle=orthogonalEdgeStyle;rounded=0;orthogonalLoop=1;jettySize=auto;html=1;exitX=0.5;exitY=0;exitDx=0;exitDy=0;entryX=0.5;entryY=1;entryDx=0;entryDy=0;" edge="1" parent="1" source="tJhSIbLWdgZJOuwZPTp4-12" target="tJhSIbLWdgZJOuwZPTp4-47">
          <mxGeometry relative="1" as="geometry" />
        </mxCell>
        <mxCell id="tJhSIbLWdgZJOuwZPTp4-12" value="&lt;div style=&quot;color: rgb(255, 255, 255); background-color: rgb(0, 0, 0); font-family: Consolas, &amp;quot;Courier New&amp;quot;, monospace; font-size: 14px; line-height: 19px;&quot;&gt;tmrInitFormTimer&lt;/div&gt;" style="rounded=1;whiteSpace=wrap;html=1;movable=1;resizable=1;rotatable=1;deletable=1;editable=1;locked=0;connectable=1;" vertex="1" parent="1">
          <mxGeometry x="-753" y="758" width="123" height="59" as="geometry" />
        </mxCell>
        <mxCell id="tJhSIbLWdgZJOuwZPTp4-86" style="edgeStyle=orthogonalEdgeStyle;rounded=0;orthogonalLoop=1;jettySize=auto;html=1;exitX=0.5;exitY=0;exitDx=0;exitDy=0;entryX=0.5;entryY=1;entryDx=0;entryDy=0;" edge="1" parent="1" source="tJhSIbLWdgZJOuwZPTp4-14" target="tJhSIbLWdgZJOuwZPTp4-48">
          <mxGeometry relative="1" as="geometry" />
        </mxCell>
        <mxCell id="tJhSIbLWdgZJOuwZPTp4-14" value="&lt;div style=&quot;color: rgb(255, 255, 255); background-color: rgb(0, 0, 0); font-family: Consolas, &amp;quot;Courier New&amp;quot;, monospace; font-size: 14px; line-height: 19px;&quot;&gt;tmrUpdateUITimer&lt;/div&gt;" style="rounded=1;whiteSpace=wrap;html=1;movable=1;resizable=1;rotatable=1;deletable=1;editable=1;locked=0;connectable=1;" vertex="1" parent="1">
          <mxGeometry x="-543" y="758" width="120" height="60" as="geometry" />
        </mxCell>
        <mxCell id="tJhSIbLWdgZJOuwZPTp4-53" style="edgeStyle=orthogonalEdgeStyle;rounded=0;orthogonalLoop=1;jettySize=auto;html=1;exitX=0.5;exitY=1;exitDx=0;exitDy=0;entryX=0.5;entryY=0;entryDx=0;entryDy=0;" edge="1" parent="1" source="tJhSIbLWdgZJOuwZPTp4-15" target="tJhSIbLWdgZJOuwZPTp4-18">
          <mxGeometry relative="1" as="geometry" />
        </mxCell>
        <mxCell id="tJhSIbLWdgZJOuwZPTp4-15" value="&lt;div style=&quot;color: rgb(255, 255, 255); background-color: rgb(0, 0, 0); font-family: Consolas, &amp;quot;Courier New&amp;quot;, monospace; font-size: 14px; line-height: 19px;&quot;&gt;tmrInitTimer&lt;/div&gt;" style="rounded=1;whiteSpace=wrap;html=1;movable=1;resizable=1;rotatable=1;deletable=1;editable=1;locked=0;connectable=1;" vertex="1" parent="1">
          <mxGeometry x="-1696.5" y="759" width="120" height="60" as="geometry" />
        </mxCell>
        <mxCell id="tJhSIbLWdgZJOuwZPTp4-18" value="&lt;div style=&quot;color: rgb(255, 255, 255); background-color: rgb(0, 0, 0); font-family: Consolas, &amp;quot;Courier New&amp;quot;, monospace; font-size: 14px; line-height: 19px;&quot;&gt;UpdateInitialize&lt;/div&gt;&lt;div style=&quot;color: rgb(255, 255, 255); background-color: rgb(0, 0, 0); font-family: Consolas, &amp;quot;Courier New&amp;quot;, monospace; font-size: 14px; line-height: 19px;&quot;&gt;StepAfterInitNc&lt;/div&gt;" style="rounded=1;whiteSpace=wrap;html=1;" vertex="1" parent="1">
          <mxGeometry x="-1698.25" y="961" width="123.5" height="56" as="geometry" />
        </mxCell>
        <mxCell id="tJhSIbLWdgZJOuwZPTp4-23" value="" style="group" vertex="1" connectable="0" parent="1">
          <mxGeometry x="-1501" y="473" width="367" height="318" as="geometry" />
        </mxCell>
        <mxCell id="tJhSIbLWdgZJOuwZPTp4-27" style="edgeStyle=orthogonalEdgeStyle;rounded=0;orthogonalLoop=1;jettySize=auto;html=1;exitX=0.5;exitY=1;exitDx=0;exitDy=0;entryX=0.5;entryY=0;entryDx=0;entryDy=0;" edge="1" parent="tJhSIbLWdgZJOuwZPTp4-23" source="tJhSIbLWdgZJOuwZPTp4-4" target="tJhSIbLWdgZJOuwZPTp4-11">
          <mxGeometry relative="1" as="geometry" />
        </mxCell>
        <mxCell id="tJhSIbLWdgZJOuwZPTp4-4" value="&lt;div style=&quot;color: rgb(255, 255, 255); background-color: rgb(0, 0, 0); font-family: Consolas, &amp;quot;Courier New&amp;quot;, monospace; font-size: 14px; line-height: 19px;&quot;&gt;InitNc&lt;/div&gt;" style="rounded=1;whiteSpace=wrap;html=1;" vertex="1" parent="tJhSIbLWdgZJOuwZPTp4-23">
          <mxGeometry x="247" width="120" height="60" as="geometry" />
        </mxCell>
        <mxCell id="tJhSIbLWdgZJOuwZPTp4-20" style="edgeStyle=orthogonalEdgeStyle;rounded=0;orthogonalLoop=1;jettySize=auto;html=1;exitX=1;exitY=0.5;exitDx=0;exitDy=0;entryX=0;entryY=0.5;entryDx=0;entryDy=0;" edge="1" parent="tJhSIbLWdgZJOuwZPTp4-23" source="tJhSIbLWdgZJOuwZPTp4-6" target="tJhSIbLWdgZJOuwZPTp4-4">
          <mxGeometry relative="1" as="geometry" />
        </mxCell>
        <mxCell id="tJhSIbLWdgZJOuwZPTp4-71" style="edgeStyle=orthogonalEdgeStyle;rounded=0;orthogonalLoop=1;jettySize=auto;html=1;exitX=0.5;exitY=1;exitDx=0;exitDy=0;" edge="1" parent="tJhSIbLWdgZJOuwZPTp4-23" source="tJhSIbLWdgZJOuwZPTp4-6" target="tJhSIbLWdgZJOuwZPTp4-8">
          <mxGeometry relative="1" as="geometry" />
        </mxCell>
        <mxCell id="tJhSIbLWdgZJOuwZPTp4-6" value="&lt;div style=&quot;color: rgb(255, 255, 255); background-color: rgb(0, 0, 0); font-family: Consolas, &amp;quot;Courier New&amp;quot;, monospace; font-size: 14px; line-height: 19px;&quot;&gt;FormCreate&lt;/div&gt;" style="rounded=1;whiteSpace=wrap;html=1;" vertex="1" parent="tJhSIbLWdgZJOuwZPTp4-23">
          <mxGeometry y="105" width="120" height="60" as="geometry" />
        </mxCell>
        <mxCell id="tJhSIbLWdgZJOuwZPTp4-28" style="edgeStyle=orthogonalEdgeStyle;rounded=0;orthogonalLoop=1;jettySize=auto;html=1;exitX=0.5;exitY=1;exitDx=0;exitDy=0;" edge="1" parent="tJhSIbLWdgZJOuwZPTp4-23" source="tJhSIbLWdgZJOuwZPTp4-11" target="tJhSIbLWdgZJOuwZPTp4-13">
          <mxGeometry relative="1" as="geometry" />
        </mxCell>
        <mxCell id="tJhSIbLWdgZJOuwZPTp4-11" value="&lt;div style=&quot;color: rgb(255, 255, 255); background-color: rgb(0, 0, 0); font-family: Consolas, &amp;quot;Courier New&amp;quot;, monospace; font-size: 14px; line-height: 19px;&quot;&gt;InitFrames&lt;/div&gt;" style="rounded=1;whiteSpace=wrap;html=1;" vertex="1" parent="tJhSIbLWdgZJOuwZPTp4-23">
          <mxGeometry x="247" y="105" width="120" height="60" as="geometry" />
        </mxCell>
        <mxCell id="tJhSIbLWdgZJOuwZPTp4-21" style="edgeStyle=orthogonalEdgeStyle;rounded=0;orthogonalLoop=1;jettySize=auto;html=1;exitX=1;exitY=0.5;exitDx=0;exitDy=0;entryX=0;entryY=0.5;entryDx=0;entryDy=0;" edge="1" parent="tJhSIbLWdgZJOuwZPTp4-23" source="tJhSIbLWdgZJOuwZPTp4-6" target="tJhSIbLWdgZJOuwZPTp4-11">
          <mxGeometry relative="1" as="geometry" />
        </mxCell>
        <mxCell id="tJhSIbLWdgZJOuwZPTp4-13" value="&lt;div style=&quot;color: rgb(255, 255, 255); background-color: rgb(0, 0, 0); font-family: Consolas, &amp;quot;Courier New&amp;quot;, monospace; font-size: 14px; line-height: 19px;&quot;&gt;InitIcons&lt;/div&gt;" style="rounded=1;whiteSpace=wrap;html=1;" vertex="1" parent="tJhSIbLWdgZJOuwZPTp4-23">
          <mxGeometry x="247" y="215" width="120" height="60" as="geometry" />
        </mxCell>
        <mxCell id="tJhSIbLWdgZJOuwZPTp4-22" style="edgeStyle=orthogonalEdgeStyle;rounded=0;orthogonalLoop=1;jettySize=auto;html=1;exitX=1;exitY=0.5;exitDx=0;exitDy=0;entryX=0;entryY=0.5;entryDx=0;entryDy=0;" edge="1" parent="tJhSIbLWdgZJOuwZPTp4-23" source="tJhSIbLWdgZJOuwZPTp4-6" target="tJhSIbLWdgZJOuwZPTp4-13">
          <mxGeometry relative="1" as="geometry" />
        </mxCell>
        <mxCell id="tJhSIbLWdgZJOuwZPTp4-8" value="&lt;div style=&quot;color: rgb(255, 255, 255); background-color: rgb(0, 0, 0); font-family: Consolas, &amp;quot;Courier New&amp;quot;, monospace; font-size: 14px; line-height: 19px;&quot;&gt;FormShow&lt;/div&gt;" style="rounded=1;whiteSpace=wrap;html=1;" vertex="1" parent="tJhSIbLWdgZJOuwZPTp4-23">
          <mxGeometry y="286" width="120" height="60" as="geometry" />
        </mxCell>
        <mxCell id="tJhSIbLWdgZJOuwZPTp4-26" style="edgeStyle=orthogonalEdgeStyle;rounded=0;orthogonalLoop=1;jettySize=auto;html=1;exitX=0.5;exitY=1;exitDx=0;exitDy=0;entryX=0.5;entryY=0;entryDx=0;entryDy=0;" edge="1" parent="1" source="tJhSIbLWdgZJOuwZPTp4-25" target="tJhSIbLWdgZJOuwZPTp4-4">
          <mxGeometry relative="1" as="geometry" />
        </mxCell>
        <mxCell id="tJhSIbLWdgZJOuwZPTp4-25" value="&lt;div style=&quot;color: rgb(255, 255, 255); background-color: rgb(0, 0, 0); font-family: Consolas, &amp;quot;Courier New&amp;quot;, monospace; font-size: 14px; line-height: 19px;&quot;&gt;PreFrmInit&lt;/div&gt;" style="rounded=1;whiteSpace=wrap;html=1;" vertex="1" parent="1">
          <mxGeometry x="-1253" y="336" width="120" height="60" as="geometry" />
        </mxCell>
        <mxCell id="tJhSIbLWdgZJOuwZPTp4-81" style="edgeStyle=orthogonalEdgeStyle;rounded=0;orthogonalLoop=1;jettySize=auto;html=1;exitX=1;exitY=0.5;exitDx=0;exitDy=0;entryX=0.5;entryY=0;entryDx=0;entryDy=0;" edge="1" parent="1" source="tJhSIbLWdgZJOuwZPTp4-29" target="tJhSIbLWdgZJOuwZPTp4-79">
          <mxGeometry relative="1" as="geometry" />
        </mxCell>
        <mxCell id="tJhSIbLWdgZJOuwZPTp4-29" value="TWeldNcSystem&lt;br&gt;(GNcSystem)" style="rounded=1;whiteSpace=wrap;html=1;" vertex="1" parent="1">
          <mxGeometry x="-986" y="176" width="120" height="60" as="geometry" />
        </mxCell>
        <mxCell id="tJhSIbLWdgZJOuwZPTp4-30" style="edgeStyle=orthogonalEdgeStyle;rounded=0;orthogonalLoop=1;jettySize=auto;html=1;exitX=1;exitY=0.5;exitDx=0;exitDy=0;entryX=0;entryY=0.5;entryDx=0;entryDy=0;" edge="1" parent="1" source="tJhSIbLWdgZJOuwZPTp4-4" target="tJhSIbLWdgZJOuwZPTp4-29">
          <mxGeometry relative="1" as="geometry" />
        </mxCell>
        <mxCell id="tJhSIbLWdgZJOuwZPTp4-39" value="" style="group" vertex="1" connectable="0" parent="1">
          <mxGeometry x="-996" y="426" width="140" height="332" as="geometry" />
        </mxCell>
        <mxCell id="tJhSIbLWdgZJOuwZPTp4-40" value="" style="rounded=0;whiteSpace=wrap;html=1;" vertex="1" parent="tJhSIbLWdgZJOuwZPTp4-39">
          <mxGeometry x="-16" y="-21" width="156" height="353" as="geometry" />
        </mxCell>
        <mxCell id="tJhSIbLWdgZJOuwZPTp4-31" value="TfrmOperation" style="rounded=1;whiteSpace=wrap;html=1;" vertex="1" parent="tJhSIbLWdgZJOuwZPTp4-39">
          <mxGeometry x="4" width="118" height="35" as="geometry" />
        </mxCell>
        <mxCell id="tJhSIbLWdgZJOuwZPTp4-32" value="TFrameCAD" style="rounded=1;whiteSpace=wrap;html=1;" vertex="1" parent="tJhSIbLWdgZJOuwZPTp4-39">
          <mxGeometry x="3" y="54" width="117" height="30" as="geometry" />
        </mxCell>
        <mxCell id="tJhSIbLWdgZJOuwZPTp4-33" value="TfrmDevState" style="rounded=1;whiteSpace=wrap;html=1;" vertex="1" parent="tJhSIbLWdgZJOuwZPTp4-39">
          <mxGeometry x="1" y="235" width="120" height="28" as="geometry" />
        </mxCell>
        <mxCell id="tJhSIbLWdgZJOuwZPTp4-34" value="TfrmRtImage" style="rounded=1;whiteSpace=wrap;html=1;" vertex="1" parent="tJhSIbLWdgZJOuwZPTp4-39">
          <mxGeometry y="185.5" width="118" height="30.5" as="geometry" />
        </mxCell>
        <mxCell id="tJhSIbLWdgZJOuwZPTp4-35" value="TfrmDevState" style="rounded=1;whiteSpace=wrap;html=1;" vertex="1" parent="tJhSIbLWdgZJOuwZPTp4-39">
          <mxGeometry x="1" y="282" width="117" height="28" as="geometry" />
        </mxCell>
        <mxCell id="tJhSIbLWdgZJOuwZPTp4-36" value="TFrameLog" style="rounded=1;whiteSpace=wrap;html=1;" vertex="1" parent="tJhSIbLWdgZJOuwZPTp4-39">
          <mxGeometry x="1" y="141" width="119" height="32" as="geometry" />
        </mxCell>
        <mxCell id="tJhSIbLWdgZJOuwZPTp4-37" value="TFrameMenu" style="rounded=1;whiteSpace=wrap;html=1;" vertex="1" parent="tJhSIbLWdgZJOuwZPTp4-39">
          <mxGeometry x="2" y="93" width="118" height="32" as="geometry" />
        </mxCell>
        <mxCell id="tJhSIbLWdgZJOuwZPTp4-42" style="edgeStyle=orthogonalEdgeStyle;rounded=0;orthogonalLoop=1;jettySize=auto;html=1;exitX=1;exitY=0.5;exitDx=0;exitDy=0;entryX=0;entryY=0.5;entryDx=0;entryDy=0;" edge="1" parent="1" source="tJhSIbLWdgZJOuwZPTp4-11" target="tJhSIbLWdgZJOuwZPTp4-40">
          <mxGeometry relative="1" as="geometry" />
        </mxCell>
        <mxCell id="tJhSIbLWdgZJOuwZPTp4-52" style="edgeStyle=orthogonalEdgeStyle;rounded=0;orthogonalLoop=1;jettySize=auto;html=1;exitX=1;exitY=0.5;exitDx=0;exitDy=0;entryX=0;entryY=0.5;entryDx=0;entryDy=0;" edge="1" parent="1" source="tJhSIbLWdgZJOuwZPTp4-47" target="tJhSIbLWdgZJOuwZPTp4-48">
          <mxGeometry relative="1" as="geometry" />
        </mxCell>
        <mxCell id="tJhSIbLWdgZJOuwZPTp4-47" value="Show" style="rounded=1;whiteSpace=wrap;html=1;" vertex="1" parent="1">
          <mxGeometry x="-751.5" y="556" width="120" height="60" as="geometry" />
        </mxCell>
        <mxCell id="tJhSIbLWdgZJOuwZPTp4-48" value="UpdateState" style="rounded=1;whiteSpace=wrap;html=1;" vertex="1" parent="1">
          <mxGeometry x="-543" y="556" width="120" height="60" as="geometry" />
        </mxCell>
        <mxCell id="tJhSIbLWdgZJOuwZPTp4-59" value="" style="group" vertex="1" connectable="0" parent="1">
          <mxGeometry x="-1498.5" y="845" width="364.5" height="205" as="geometry" />
        </mxCell>
        <mxCell id="tJhSIbLWdgZJOuwZPTp4-1" value="&lt;div style=&quot;font-family: Consolas, &amp;quot;Courier New&amp;quot;, monospace; font-size: 14px; line-height: 19px;&quot;&gt;&lt;div style=&quot;color: rgb(255, 255, 255); background-color: rgb(0, 0, 0); line-height: 19px;&quot;&gt;FormClose&lt;/div&gt;&lt;/div&gt;" style="rounded=1;whiteSpace=wrap;html=1;" vertex="1" parent="tJhSIbLWdgZJOuwZPTp4-59">
          <mxGeometry y="84" width="116" height="55" as="geometry" />
        </mxCell>
        <mxCell id="tJhSIbLWdgZJOuwZPTp4-10" value="&lt;div style=&quot;color: rgb(255, 255, 255); background-color: rgb(0, 0, 0); font-family: Consolas, &amp;quot;Courier New&amp;quot;, monospace; font-size: 14px; line-height: 19px;&quot;&gt;FinalizeFrames&lt;/div&gt;" style="rounded=1;whiteSpace=wrap;html=1;" vertex="1" parent="tJhSIbLWdgZJOuwZPTp4-59">
          <mxGeometry x="244.5" y="145" width="120" height="60" as="geometry" />
        </mxCell>
        <mxCell id="tJhSIbLWdgZJOuwZPTp4-56" style="edgeStyle=orthogonalEdgeStyle;rounded=0;orthogonalLoop=1;jettySize=auto;html=1;exitX=1;exitY=0.5;exitDx=0;exitDy=0;entryX=0;entryY=0.5;entryDx=0;entryDy=0;" edge="1" parent="tJhSIbLWdgZJOuwZPTp4-59" source="tJhSIbLWdgZJOuwZPTp4-1" target="tJhSIbLWdgZJOuwZPTp4-10">
          <mxGeometry relative="1" as="geometry" />
        </mxCell>
        <mxCell id="tJhSIbLWdgZJOuwZPTp4-82" style="edgeStyle=orthogonalEdgeStyle;rounded=0;orthogonalLoop=1;jettySize=auto;html=1;exitX=0.5;exitY=1;exitDx=0;exitDy=0;" edge="1" parent="tJhSIbLWdgZJOuwZPTp4-59" source="tJhSIbLWdgZJOuwZPTp4-54" target="tJhSIbLWdgZJOuwZPTp4-10">
          <mxGeometry relative="1" as="geometry" />
        </mxCell>
        <mxCell id="tJhSIbLWdgZJOuwZPTp4-54" value="FinalizeNc" style="rounded=1;whiteSpace=wrap;html=1;" vertex="1" parent="tJhSIbLWdgZJOuwZPTp4-59">
          <mxGeometry x="244.5" width="120" height="60" as="geometry" />
        </mxCell>
        <mxCell id="tJhSIbLWdgZJOuwZPTp4-57" style="edgeStyle=orthogonalEdgeStyle;rounded=0;orthogonalLoop=1;jettySize=auto;html=1;exitX=1;exitY=0.5;exitDx=0;exitDy=0;entryX=0;entryY=0.5;entryDx=0;entryDy=0;" edge="1" parent="tJhSIbLWdgZJOuwZPTp4-59" source="tJhSIbLWdgZJOuwZPTp4-1" target="tJhSIbLWdgZJOuwZPTp4-54">
          <mxGeometry relative="1" as="geometry" />
        </mxCell>
        <mxCell id="tJhSIbLWdgZJOuwZPTp4-62" value="Finalize" style="rounded=1;whiteSpace=wrap;html=1;" vertex="1" parent="1">
          <mxGeometry x="-653" y="624" width="120" height="60" as="geometry" />
        </mxCell>
        <mxCell id="tJhSIbLWdgZJOuwZPTp4-65" style="edgeStyle=orthogonalEdgeStyle;rounded=0;orthogonalLoop=1;jettySize=auto;html=1;exitX=1;exitY=0.5;exitDx=0;exitDy=0;entryX=0;entryY=0.5;entryDx=0;entryDy=0;" edge="1" parent="1" source="tJhSIbLWdgZJOuwZPTp4-40" target="tJhSIbLWdgZJOuwZPTp4-64">
          <mxGeometry relative="1" as="geometry" />
        </mxCell>
        <mxCell id="tJhSIbLWdgZJOuwZPTp4-72" style="edgeStyle=orthogonalEdgeStyle;rounded=0;orthogonalLoop=1;jettySize=auto;html=1;exitX=0.5;exitY=1;exitDx=0;exitDy=0;entryX=0.5;entryY=0;entryDx=0;entryDy=0;" edge="1" parent="1" source="tJhSIbLWdgZJOuwZPTp4-8" target="tJhSIbLWdgZJOuwZPTp4-1">
          <mxGeometry relative="1" as="geometry" />
        </mxCell>
        <mxCell id="tJhSIbLWdgZJOuwZPTp4-80" style="edgeStyle=orthogonalEdgeStyle;rounded=0;orthogonalLoop=1;jettySize=auto;html=1;exitX=1;exitY=0.5;exitDx=0;exitDy=0;" edge="1" parent="1" source="tJhSIbLWdgZJOuwZPTp4-73" target="tJhSIbLWdgZJOuwZPTp4-79">
          <mxGeometry relative="1" as="geometry" />
        </mxCell>
        <mxCell id="tJhSIbLWdgZJOuwZPTp4-73" value="TWeldNcSystem&lt;br&gt;(GNcSystem)" style="rounded=1;whiteSpace=wrap;html=1;" vertex="1" parent="1">
          <mxGeometry x="-750" y="845" width="120" height="60" as="geometry" />
        </mxCell>
        <mxCell id="tJhSIbLWdgZJOuwZPTp4-74" style="edgeStyle=orthogonalEdgeStyle;rounded=0;orthogonalLoop=1;jettySize=auto;html=1;exitX=1;exitY=0.5;exitDx=0;exitDy=0;" edge="1" parent="1" source="tJhSIbLWdgZJOuwZPTp4-54" target="tJhSIbLWdgZJOuwZPTp4-73">
          <mxGeometry relative="1" as="geometry" />
        </mxCell>
        <mxCell id="tJhSIbLWdgZJOuwZPTp4-78" style="edgeStyle=orthogonalEdgeStyle;rounded=0;orthogonalLoop=1;jettySize=auto;html=1;exitX=1;exitY=0.5;exitDx=0;exitDy=0;entryX=0.5;entryY=1;entryDx=0;entryDy=0;" edge="1" parent="1" source="tJhSIbLWdgZJOuwZPTp4-10" target="tJhSIbLWdgZJOuwZPTp4-40">
          <mxGeometry relative="1" as="geometry" />
        </mxCell>
        <mxCell id="tJhSIbLWdgZJOuwZPTp4-79" value="&lt;font style=&quot;font-size: 26px;&quot;&gt;NcStateMachine&lt;/font&gt;" style="rounded=0;whiteSpace=wrap;html=1;" vertex="1" parent="1">
          <mxGeometry x="-324" y="462.37" width="407" height="243" as="geometry" />
        </mxCell>
        <mxCell id="tJhSIbLWdgZJOuwZPTp4-83" value="&lt;font style=&quot;font-size: 23px;&quot;&gt;FrameStateMachine&lt;/font&gt;" style="text;html=1;strokeColor=none;fillColor=none;align=center;verticalAlign=middle;whiteSpace=wrap;rounded=0;" vertex="1" parent="1">
          <mxGeometry x="-615" y="489" width="60" height="30" as="geometry" />
        </mxCell>
        <mxCell id="tJhSIbLWdgZJOuwZPTp4-87" style="edgeStyle=orthogonalEdgeStyle;rounded=0;orthogonalLoop=1;jettySize=auto;html=1;exitX=0;exitY=0.5;exitDx=0;exitDy=0;" edge="1" parent="1" source="tJhSIbLWdgZJOuwZPTp4-8" target="tJhSIbLWdgZJOuwZPTp4-15">
          <mxGeometry relative="1" as="geometry" />
        </mxCell>
        <mxCell id="tJhSIbLWdgZJOuwZPTp4-88" style="edgeStyle=orthogonalEdgeStyle;rounded=0;orthogonalLoop=1;jettySize=auto;html=1;exitX=1;exitY=0.5;exitDx=0;exitDy=0;entryX=0;entryY=0.5;entryDx=0;entryDy=0;" edge="1" parent="1" source="tJhSIbLWdgZJOuwZPTp4-8" target="tJhSIbLWdgZJOuwZPTp4-12">
          <mxGeometry relative="1" as="geometry" />
        </mxCell>
        <mxCell id="tJhSIbLWdgZJOuwZPTp4-89" style="edgeStyle=orthogonalEdgeStyle;rounded=0;orthogonalLoop=1;jettySize=auto;html=1;exitX=0.5;exitY=1;exitDx=0;exitDy=0;entryX=0.5;entryY=0;entryDx=0;entryDy=0;" edge="1" parent="1" source="tJhSIbLWdgZJOuwZPTp4-1" target="tJhSIbLWdgZJOuwZPTp4-5">
          <mxGeometry relative="1" as="geometry" />
        </mxCell>
        <mxCell id="tJhSIbLWdgZJOuwZPTp4-93" value="" style="group" vertex="1" connectable="0" parent="1">
          <mxGeometry x="-2131" y="679" width="383" height="330.13" as="geometry" />
        </mxCell>
        <mxCell id="tJhSIbLWdgZJOuwZPTp4-91" value="" style="rounded=0;whiteSpace=wrap;html=1;" vertex="1" parent="tJhSIbLWdgZJOuwZPTp4-93">
          <mxGeometry width="383" height="330.13" as="geometry" />
        </mxCell>
        <mxCell id="tJhSIbLWdgZJOuwZPTp4-7" value="&lt;div style=&quot;color: rgb(255, 255, 255); background-color: rgb(0, 0, 0); font-family: Consolas, &amp;quot;Courier New&amp;quot;, monospace; font-size: 14px; line-height: 19px;&quot;&gt;WMSysSuspended&lt;/div&gt;" style="rounded=1;whiteSpace=wrap;html=1;" vertex="1" parent="tJhSIbLWdgZJOuwZPTp4-93">
          <mxGeometry x="43" y="229" width="120" height="60" as="geometry" />
        </mxCell>
        <mxCell id="tJhSIbLWdgZJOuwZPTp4-9" value="&lt;div style=&quot;color: rgb(255, 255, 255); background-color: rgb(0, 0, 0); font-family: Consolas, &amp;quot;Courier New&amp;quot;, monospace; font-size: 14px; line-height: 19px;&quot;&gt;AppException&lt;/div&gt;" style="rounded=1;whiteSpace=wrap;html=1;" vertex="1" parent="tJhSIbLWdgZJOuwZPTp4-93">
          <mxGeometry x="198" y="116" width="120" height="60" as="geometry" />
        </mxCell>
        <mxCell id="tJhSIbLWdgZJOuwZPTp4-16" value="&lt;div style=&quot;color: rgb(255, 255, 255); background-color: rgb(0, 0, 0); font-family: Consolas, &amp;quot;Courier New&amp;quot;, monospace; font-size: 14px; line-height: 19px;&quot;&gt;ScreenActive&lt;/div&gt;&lt;div style=&quot;color: rgb(255, 255, 255); background-color: rgb(0, 0, 0); font-family: Consolas, &amp;quot;Courier New&amp;quot;, monospace; font-size: 14px; line-height: 19px;&quot;&gt;FormChanged&lt;/div&gt;" style="rounded=1;whiteSpace=wrap;html=1;" vertex="1" parent="tJhSIbLWdgZJOuwZPTp4-93">
          <mxGeometry x="41.5" y="114" width="123" height="60" as="geometry" />
        </mxCell>
        <mxCell id="tJhSIbLWdgZJOuwZPTp4-17" value="&lt;div style=&quot;color: rgb(255, 255, 255); background-color: rgb(0, 0, 0); font-family: Consolas, &amp;quot;Courier New&amp;quot;, monospace; font-size: 14px; line-height: 19px;&quot;&gt;SetAlarmText&lt;/div&gt;" style="rounded=1;whiteSpace=wrap;html=1;" vertex="1" parent="tJhSIbLWdgZJOuwZPTp4-93">
          <mxGeometry x="201" y="231" width="120" height="60" as="geometry" />
        </mxCell>
        <mxCell id="tJhSIbLWdgZJOuwZPTp4-92" value="&lt;font style=&quot;font-size: 20px;&quot;&gt;辅助工具&lt;/font&gt;" style="text;html=1;strokeColor=none;fillColor=none;align=center;verticalAlign=middle;whiteSpace=wrap;rounded=0;" vertex="1" parent="tJhSIbLWdgZJOuwZPTp4-93">
          <mxGeometry x="106" y="43" width="160" height="34" as="geometry" />
        </mxCell>
      </root>
    </mxGraphModel>
  </diagram>
</mxfile>
